<?xml version="1.0" encoding="utf-8"?>
<!-- Generator: Adobe Illustrator 19.2.0, SVG Export Plug-In . SVG Version: 6.00 Build 0)  -->
<svg version="1.1" id="Layer_1" xmlns="http://www.w3.org/2000/svg" xmlns:xlink="http://www.w3.org/1999/xlink" x="0px" y="0px"
	 viewBox="0 0 19.7 19.9" style="enable-background:new 0 0 19.7 19.9;" xml:space="preserve">
<style type="text/css">
	.st0{fill:#F05023;}
	.st1{fill:#30ADE3;}
	.st2{fill:#2371B9;}
</style>
<path class="st2" d="M12.4,9.6l5.2-5.4c0.2-0.2,0.2-0.5,0-0.8L16.3,2c-0.2-0.2-0.5-0.2-0.7,0l-5.2,5.4L5.1,2C4.9,1.8,4.5,1.8,4.3,2
	L2.9,3.5C2.7,3.7,2.7,4,2.9,4.2l5.2,5.4L2.9,15c-0.2,0.2-0.2,0.5,0,0.8l1.4,1.4c0.2,0.2,0.5,0.2,0.7,0l5.2-5.4l5.2,5.4
	c0.2,0.2,0.5,0.2,0.7,0l1.4-1.4c0.2-0.2,0.2-0.5,0-0.8L12.4,9.6z"/>
</svg>
