<?xml version="1.0" encoding="utf-8"?>
<!-- Generator: Adobe Illustrator 19.2.0, SVG Export Plug-In . SVG Version: 6.00 Build 0)  -->
<svg version="1.1" id="Layer_1" xmlns="http://www.w3.org/2000/svg" xmlns:xlink="http://www.w3.org/1999/xlink" x="0px" y="0px"
	 viewBox="0 0 18 18" style="enable-background:new 0 0 18 18;" xml:space="preserve">
<style type="text/css">
	.st0{fill-rule:evenodd;clip-rule:evenodd;fill:#00ADEE;}
	.st1{fill:#00ADEE;}
	.st2{fill:#FC4C02;}
	.st3{fill:none;stroke:#FC4C02;stroke-width:0.4727;stroke-miterlimit:10;}
	.st4{fill:none;stroke:#FC4C02;stroke-width:0.4675;stroke-miterlimit:10;}
	.st5{fill:none;stroke:#FC4C02;stroke-width:0.4473;stroke-miterlimit:10;}
	.st6{fill:#FFFFFF;}
</style>
<g>
	<path class="st6" d="M5.3,2.4c1.2-0.7,2.4-1,3.8-1s2.7,0.3,3.8,1S15,4,15.7,5.2c0.7,1.2,1,2.4,1,3.8s-0.3,2.7-1,3.8
		c-0.7,1.2-1.6,2.1-2.8,2.8s-2.4,1-3.8,1s-2.7-0.3-3.8-1S3.2,14,2.5,12.8c-0.7-1.2-1-2.4-1-3.8s0.3-2.7,1-3.8S4.1,3.1,5.3,2.4z
		 M10.4,10.3l0.2-6.2c0-0.1,0-0.1-0.1-0.2c-0.1-0.1-0.1-0.1-0.2-0.1H8c-0.1,0-0.2,0-0.2,0.1C7.7,4,7.7,4.1,7.7,4.2l0.2,6.2
		c0,0.1,0,0.1,0.1,0.2c0.1,0,0.1,0.1,0.2,0.1H10c0.1,0,0.2,0,0.2-0.1C10.3,10.5,10.4,10.4,10.4,10.3z M10.4,13.8v-1.9
		c0-0.1,0-0.2-0.1-0.2s-0.1-0.1-0.2-0.1H8.2c-0.1,0-0.2,0-0.2,0.1s-0.1,0.1-0.1,0.2v1.9c0,0.1,0,0.2,0.1,0.2C8,14,8.1,14.1,8.2,14.1
		h1.9c0.1,0,0.2,0,0.2-0.1C10.3,13.9,10.4,13.8,10.4,13.8z"/>
</g>
</svg>
