<?xml version="1.0" encoding="utf-8"?>
<!-- Generator: Adobe Illustrator 19.2.0, SVG Export Plug-In . SVG Version: 6.00 Build 0)  -->
<svg version="1.1" id="Layer_1" xmlns="http://www.w3.org/2000/svg" xmlns:xlink="http://www.w3.org/1999/xlink" x="0px" y="0px"
	 viewBox="0 0 18 18" style="enable-background:new 0 0 18 18;" xml:space="preserve">
<style type="text/css">
	.st0{fill-rule:evenodd;clip-rule:evenodd;fill:#00ADEE;}
	.st1{fill:#00ADEE;}
	.st2{fill:#FC4C02;}
	.st3{fill:none;stroke:#FC4C02;stroke-width:0.4727;stroke-miterlimit:10;}
	.st4{fill:none;stroke:#FC4C02;stroke-width:0.4675;stroke-miterlimit:10;}
	.st5{fill:none;stroke:#FC4C02;stroke-width:0.4473;stroke-miterlimit:10;}
	.st6{fill:#FFFFFF;}
</style>
<path class="st6" d="M12.7,8l-3.8,3.5c-0.1,0.1-0.2,0.1-0.3,0.2c-0.1,0-0.2,0.1-0.3,0.1c-0.2,0-0.4-0.1-0.5-0.2L5.3,9.3
	C5,9,5,8.5,5.3,8.2c0.3-0.3,0.8-0.3,1.1,0L8.2,10l3.4-3.1C12,6.6,12.4,6.6,12.7,7C13,7.3,13,7.8,12.7,8z M9,1.6
	C4.8,1.6,1.5,5,1.5,9.1s3.4,7.5,7.5,7.5s7.5-3.4,7.5-7.5S13.2,1.6,9,1.6z"/>
</svg>
