<?xml version="1.0" encoding="utf-8"?>
<!-- Generator: Adobe Illustrator 19.2.0, SVG Export Plug-In . SVG Version: 6.00 Build 0)  -->
<svg version="1.1" id="Layer_1" xmlns="http://www.w3.org/2000/svg" xmlns:xlink="http://www.w3.org/1999/xlink" x="0px" y="0px"
	 viewBox="0 0 24.6 16.7" style="enable-background:new 0 0 24.6 16.7;" xml:space="preserve">
<style type="text/css">
	.st0{fill-rule:evenodd;clip-rule:evenodd;fill:#00ADEE;}
	.st1{fill:#00ADEE;}
	.st2{fill:#FC4C02;}
	.st3{fill:none;stroke:#FC4C02;stroke-width:0.4727;stroke-miterlimit:10;}
	.st4{fill:none;stroke:#FC4C02;stroke-width:0.4675;stroke-miterlimit:10;}
	.st5{fill:none;stroke:#FC4C02;stroke-width:0.4473;stroke-miterlimit:10;}
	.st6{fill:#FFFFFF;}
</style>
<g>
	<path class="st6" d="M11.6,14.1c-4.4,0.4-9-0.2-9.6-3.7C1.6,8.7,2.4,6.9,3.4,5.8V5.2c-1.8,1.6-2.8,3.7-2.3,6.1
		c0.7,3.1,4.7,4.8,10.7,4.3c2.4-0.2,5.5-1,7.6-2.2v-1.7C17.5,12.9,14.3,13.8,11.6,14.1z M23.1,5.2c-1-5.1-10.9-5.4-17.3-1.5v0.4
		C12.2,0.8,21.2,0.8,22,5.5c0.3,1.5-0.6,3.2-2.2,4.1v1.2C21.8,10.1,23.7,7.9,23.1,5.2z"/>
	<path class="st6" d="M19.1,4.4h-1.2v5.1c0,0.6,0.3,1.1,1.2,1.2V4.4z"/>
	<path class="st6" d="M5.4,6.3H4.2l0,3.3c0,0.6,0.3,1.1,1.2,1.2V6.3z"/>
	<rect x="4.2" y="4.6" class="st6" width="1.1" height="1.1"/>
	<path class="st6" d="M12.3,10.8c-0.9,0-1.3-0.6-1.3-1.3V5.1h1.1v1.2H13v0.9h-0.9v2.2c0,0.3,0.1,0.4,0.4,0.4H13v1H12.3"/>
	<path class="st6" d="M14.4,8.9c0,0.6,0.4,1,1,1c0.5,0,0.8-0.1,1-0.4l0.7,0.7c-0.5,0.4-0.9,0.7-1.8,0.7c-1.1,0-2.1-0.6-2.1-2.3
		c0-1.5,0.9-2.3,2.1-2.3c1.2,0,1.9,1,1.9,2.3v0.4H14.4 M15.3,7.2c-0.4,0-0.7,0.2-0.8,0.5c-0.1,0.2-0.1,0.3-0.1,0.5h1.8
		C16.1,7.6,15.9,7.2,15.3,7.2z"/>
	<path class="st6" d="M8.5,7.2C8.8,7.2,9,7.4,9,7.7v3.2h1.1V7.7c0-0.6-0.3-1.3-1.3-1.3l-2.4,0v4.5h1.1V7.2H8.5z"/>
	<g>
		<path class="st6" d="M20.3,5.4c-0.3,0-0.5-0.2-0.5-0.5s0.2-0.5,0.5-0.5c0.3,0,0.5,0.2,0.5,0.5S20.6,5.4,20.3,5.4z M20.3,4.5
			c-0.2,0-0.4,0.2-0.4,0.4c0,0.2,0.2,0.4,0.4,0.4s0.4-0.2,0.4-0.4C20.7,4.7,20.5,4.5,20.3,4.5z M20.5,5.2L20.5,5.2
			c-0.1,0-0.1,0-0.1,0L20.3,5c0,0,0,0,0,0c0,0,0,0,0,0c0,0,0,0,0,0v0.2c0,0,0,0,0,0h-0.1c0,0,0,0,0,0V4.7c0,0,0,0,0,0
			c0,0,0.1,0,0.1,0c0.1,0,0.2,0,0.2,0.2v0c0,0.1,0,0.1-0.1,0.1L20.5,5.2C20.6,5.1,20.6,5.1,20.5,5.2C20.6,5.2,20.6,5.2,20.5,5.2z
			 M20.4,4.8c0-0.1,0-0.1-0.1-0.1c0,0,0,0-0.1,0c0,0,0,0,0,0v0.2c0,0,0.1,0,0.1,0C20.4,4.9,20.4,4.8,20.4,4.8L20.4,4.8z"/>
	</g>
</g>
</svg>
