<?xml version="1.0" encoding="utf-8"?>
<!-- Generator: Adobe Illustrator 19.2.0, SVG Export Plug-In . SVG Version: 6.00 Build 0)  -->
<svg version="1.1" id="Layer_1" xmlns="http://www.w3.org/2000/svg" xmlns:xlink="http://www.w3.org/1999/xlink" x="0px" y="0px"
	 viewBox="0 0 18.5 17.8" style="enable-background:new 0 0 18.5 17.8;" xml:space="preserve">
<style type="text/css">
	.st0{fill-rule:evenodd;clip-rule:evenodd;fill:#00ADEE;}
	.st1{fill:#00ADEE;}
	.st2{fill:#FC4C02;}
	.st3{fill:none;stroke:#FC4C02;stroke-width:0.4727;stroke-miterlimit:10;}
	.st4{fill:none;stroke:#FC4C02;stroke-width:0.4675;stroke-miterlimit:10;}
	.st5{fill:none;stroke:#FC4C02;stroke-width:0.4473;stroke-miterlimit:10;}
	.st6{fill:#FFFFFF;}
</style>
<g>
	<path class="st6" d="M13.3,14c0,0.2-0.1,0.3-0.3,0.3h-0.1c-0.2,0-0.3-0.1-0.3-0.3v-3.7c0-0.2,0.1-0.3,0.3-0.3H13
		c0.2,0,0.3,0.1,0.3,0.3V14z M10.9,14c0,0.2-0.1,0.3-0.3,0.3h-0.1c-0.2,0-0.3-0.1-0.3-0.3v-3.7c0-0.2,0.1-0.3,0.3-0.3h0.1
		c0.2,0,0.3,0.1,0.3,0.3V14z M8.5,14c0,0.2-0.1,0.3-0.3,0.3H8.1c-0.2,0-0.3-0.1-0.3-0.3v-3.7c0-0.2,0.1-0.3,0.3-0.3h0.1
		c0.2,0,0.3,0.1,0.3,0.3V14z M6.1,14c0,0.2-0.1,0.3-0.3,0.3H5.6c-0.2,0-0.3-0.1-0.3-0.3v-3.7c0-0.2,0.1-0.3,0.3-0.3h0.1
		c0.2,0,0.3,0.1,0.3,0.3V14z M16.7,8.2c0-0.5-0.4-0.9-1-0.9H2.7c-0.5,0-1,0.4-1,0.9C1.7,8.6,2,9,2.5,9.1l1.3,6.1c0,0.6,0.5,1,1.1,1
		h8.9c0.6,0,1.1-0.5,1.1-1L16.2,9C16.5,8.9,16.7,8.6,16.7,8.2z"/>
	<path class="st6" d="M5,5.7c0.3-2,2.1-3.6,4.3-3.6s4,1.6,4.3,3.6c0,0.7,1,0.6,1,0C14.2,3.2,12,1.2,9.3,1.2c-2.7,0-4.9,2-5.2,4.5
		C4,6.4,5,6.5,5,5.7z"/>
</g>
</svg>
