<?xml version="1.0" encoding="utf-8"?>
<!-- Generator: Adobe Illustrator 19.2.0, SVG Export Plug-In . SVG Version: 6.00 Build 0)  -->
<svg version="1.1" id="Layer_1" xmlns="http://www.w3.org/2000/svg" xmlns:xlink="http://www.w3.org/1999/xlink" x="0px" y="0px"
	 viewBox="0 0 18.5 30.4" style="enable-background:new 0 0 18.5 30.4;" xml:space="preserve">
<style type="text/css">
	.st0{fill-rule:evenodd;clip-rule:evenodd;fill:#00ADEE;}
	.st1{fill:#00ADEE;}
	.st2{fill:#FC4C02;}
	.st3{fill:none;stroke:#FC4C02;stroke-width:0.4727;stroke-miterlimit:10;}
	.st4{fill:none;stroke:#FC4C02;stroke-width:0.4675;stroke-miterlimit:10;}
	.st5{fill:none;stroke:#FC4C02;stroke-width:0.4473;stroke-miterlimit:10;}
	.st6{fill:#FFFFFF;}
</style>
<g>
	<g>
		<g>
			<path class="st6" d="M5,16.1c0-0.1,0.1-0.2,0.2-0.2h8.4c0.1,0,0.2,0.1,0.2,0.2c0,0.1-0.1,0.2-0.2,0.2H5.2C5.1,16.3,5,16.2,5,16.1
				z"/>
			<path class="st6" d="M5,12.1C5,12.1,5.1,12,5.2,12h8.4c0.1,0,0.2,0.1,0.2,0.2c0,0.1-0.1,0.2-0.2,0.2H5.2C5.1,12.3,5,12.2,5,12.1z
				"/>
			<path class="st6" d="M5,8.2C5,8.1,5.1,8,5.2,8h8.4c0.1,0,0.2,0.1,0.2,0.2c0,0.1-0.1,0.2-0.2,0.2H5.2C5.1,8.4,5,8.3,5,8.2z"/>
			<path class="st6" d="M16.4,1.1H2.4C2,1.1,1.7,1.4,1.7,1.8v8.9c-0.2,0.1-0.3,0.2-0.3,0.4v3.9c0,0.2,0.1,0.4,0.3,0.4v11.4h0v2.4H4
				v-1.6h10.8v1.6h2.3v-2.3c0,0,0-0.1,0-0.1V1.8C17.1,1.4,16.8,1.1,16.4,1.1z M13.4,24.7c0,0.4-0.3,0.7-0.7,0.7H6.1
				c-0.4,0-0.7-0.3-0.7-0.7v-1.4h7.9V24.7z M15.6,21.3H3.2V2.7h12.3V21.3z"/>
		</g>
	</g>
	<g>
		<path class="st6" d="M13,24.7c0,0.2-0.1,0.3-0.3,0.3H6.1c-0.2,0-0.3-0.1-0.3-0.3v-1.1H13V24.7z"/>
		<path class="st6" d="M13,23.6v1.1c0,0.2-0.1,0.3-0.3,0.3H6.1c-0.2,0-0.3-0.1-0.3-0.3v-1.1H13z"/>
	</g>
</g>
</svg>
