<svg id="Layer_1" xmlns="http://www.w3.org/2000/svg" viewBox="0 0 18 18"><style>.st0{fill-rule:evenodd;clip-rule:evenodd;fill:#00ADEE;} .st1{fill:#00ADEE;} .st2{fill:#FC4C02;} .st3{fill:none;stroke:#FC4C02;stroke-width:0.4727;stroke-miterlimit:10;} .st4{fill:none;stroke:#FC4C02;stroke-width:0.4675;stroke-miterlimit:10;} .st5{fill:none;stroke:#FC4C02;stroke-width:0.4473;stroke-miterlimit:10;} .st6{fill:#FFFFFF;}</style><path class="st6" d="M5.3 2.4c1.2-.7 2.4-1 3.8-1s2.7.3 3.8 1S15 4 15.7 5.2c.7 1.2 1 2.4 1 3.8s-.3 2.7-1 3.8c-.7 1.2-1.6 2.1-2.8 2.8s-2.4 1-3.8 1-2.7-.3-3.8-1-2.1-1.6-2.8-2.8c-.7-1.2-1-2.4-1-3.8s.3-2.7 1-3.8 1.6-2.1 2.8-2.8zm5.1 7.9l.2-6.2c0-.1 0-.1-.1-.2s-.1-.1-.2-.1H8c-.1 0-.2 0-.2.1-.1.1-.1.2-.1.3l.2 6.2c0 .1 0 .1.1.2.1 0 .1.1.2.1H10c.1 0 .2 0 .2-.1.1-.1.2-.2.2-.3zm0 3.5v-1.9c0-.1 0-.2-.1-.2s-.1-.1-.2-.1H8.2c-.1 0-.2 0-.2.1s-.1.1-.1.2v1.9c0 .1 0 .2.1.2 0 0 .1.1.2.1h1.9c.1 0 .2 0 .2-.1s.1-.2.1-.2z"/></svg>