<svg id="Layer_1" xmlns="http://www.w3.org/2000/svg" viewBox="0 0 18 18"><style>.st0{fill-rule:evenodd;clip-rule:evenodd;fill:#00ADEE;} .st1{fill:#00ADEE;} .st2{fill:#FC4C02;} .st3{fill:none;stroke:#FC4C02;stroke-width:0.4727;stroke-miterlimit:10;} .st4{fill:none;stroke:#FC4C02;stroke-width:0.4675;stroke-miterlimit:10;} .st5{fill:none;stroke:#FC4C02;stroke-width:0.4473;stroke-miterlimit:10;} .st6{fill:#FFFFFF;}</style><path class="st6" d="M12.7 8l-3.8 3.5c-.1.1-.2.1-.3.2-.1 0-.2.1-.3.1-.2 0-.4-.1-.5-.2L5.3 9.3C5 9 5 8.5 5.3 8.2c.3-.3.8-.3 1.1 0L8.2 10l3.4-3.1c.4-.3.8-.3 1.1.1.3.3.3.8 0 1zM9 1.6C4.8 1.6 1.5 5 1.5 9.1s3.4 7.5 7.5 7.5 7.5-3.4 7.5-7.5S13.2 1.6 9 1.6z"/></svg>