<svg id="Layer_1" xmlns="http://www.w3.org/2000/svg" viewBox="0 0 43.7 43"><style>.st0{fill-rule:evenodd;clip-rule:evenodd;fill:#00ADEE;} .st1{fill:#00ADEE;} .st2{fill:#FC4C02;} .st3{fill:none;stroke:#FC4C02;stroke-width:0.4727;stroke-miterlimit:10;} .st4{fill:none;stroke:#FC4C02;stroke-width:0.4675;stroke-miterlimit:10;} .st5{fill:none;stroke:#FC4C02;stroke-width:0.4473;stroke-miterlimit:10;} .st6{fill:#FFFFFF;}</style><path class="st0" d="M5.6 21.5c0-9 7.3-16.3 16.3-16.3s16.3 7.3 16.3 16.3-7.3 16.3-16.3 16.3S5.6 30.5 5.6 21.5zm-3.7 0c0 11 9 20 20 20s20-9 20-20-9-20-20-20-20 8.9-20 20z"/><path class="st1" d="M23.6 24.8h-2.4v6.7h-3.3l4.5 5.8 4.5-5.8h-3.3zM28.7 11.8c-.7-1.7-2.5-2.8-4.4-2.6C23.1 8 21.6 7.3 20 7.3c-2.8 0-5.2 2-5.8 4.7-2.4.7-4.2 3-4.2 5.6 0 3.2 2.6 5.8 5.8 5.8H28c3.2 0 5.8-2.6 5.8-5.8 0-3-2.2-5.5-5.1-5.8zm-.7 9.1H15.9c-1.9 0-3.4-1.5-3.4-3.4 0-1.7 1.3-3.1 3-3.3l1-.1v-1c.1-1.9 1.6-3.3 3.4-3.3 1.1 0 2.2.5 2.8 1.5l.5.8.9-.3c.2-.1.4-.1.6-.1.9 0 1.6.7 1.8 1.5l.1 1.1H28c1.9 0 3.4 1.5 3.4 3.4s-1.5 3.2-3.4 3.2z"/></svg>