<svg id="Layer_1" xmlns="http://www.w3.org/2000/svg" viewBox="0 0 24.6 16.7"><style>.st0{fill-rule:evenodd;clip-rule:evenodd;fill:#00ADEE;} .st1{fill:#00ADEE;} .st2{fill:#FC4C02;} .st3{fill:none;stroke:#FC4C02;stroke-width:0.4727;stroke-miterlimit:10;} .st4{fill:none;stroke:#FC4C02;stroke-width:0.4675;stroke-miterlimit:10;} .st5{fill:none;stroke:#FC4C02;stroke-width:0.4473;stroke-miterlimit:10;} .st6{fill:#FFFFFF;}</style><path class="st6" d="M11.6 14.1c-4.4.4-9-.2-9.6-3.7-.4-1.7.4-3.5 1.4-4.6v-.6C1.6 6.8.6 8.9 1.1 11.3c.7 3.1 4.7 4.8 10.7 4.3 2.4-.2 5.5-1 7.6-2.2v-1.7c-1.9 1.2-5.1 2.1-7.8 2.4zm11.5-8.9C22.1.1 12.2-.2 5.8 3.7v.4C12.2.8 21.2.8 22 5.5c.3 1.5-.6 3.2-2.2 4.1v1.2c2-.7 3.9-2.9 3.3-5.6z"/><path class="st6" d="M19.1 4.4h-1.2v5.1c0 .6.3 1.1 1.2 1.2V4.4zM5.4 6.3H4.2v3.3c0 .6.3 1.1 1.2 1.2V6.3zM4.2 4.6h1.1v1.1H4.2zM12.3 10.8c-.9 0-1.3-.6-1.3-1.3V5.1h1.1v1.2h.9v.9h-.9v2.2c0 .3.1.4.4.4h.5v1h-.7M14.4 8.9c0 .6.4 1 1 1 .5 0 .8-.1 1-.4l.7.7c-.5.4-.9.7-1.8.7-1.1 0-2.1-.6-2.1-2.3 0-1.5.9-2.3 2.1-2.3 1.2 0 1.9 1 1.9 2.3V9h-2.8m.9-1.8c-.4 0-.7.2-.8.5-.1.2-.1.3-.1.5h1.8c-.1-.6-.3-1-.9-1zM8.5 7.2c.3 0 .5.2.5.5v3.2h1.1V7.7c0-.6-.3-1.3-1.3-1.3H6.4v4.5h1.1V7.2h1zM20.3 5.4c-.3 0-.5-.2-.5-.5s.2-.5.5-.5.5.2.5.5-.2.5-.5.5zm0-.9c-.2 0-.4.2-.4.4s.2.4.4.4.4-.2.4-.4-.2-.4-.4-.4zm.2.7h-.1l-.1-.2v.2h-.1v-.5h.1c.1 0 .2 0 .2.2 0 .1 0 .1-.1.1l.1.2c.1-.1.1-.1 0 0 .1 0 .1 0 0 0zm-.1-.4c0-.1 0-.1-.1-.1h-.1v.2h.1c.1 0 .1-.1.1-.1z"/></svg>