<svg id="Layer_1" xmlns="http://www.w3.org/2000/svg" viewBox="0 0 18.5 17.8"><style>.st0{fill-rule:evenodd;clip-rule:evenodd;fill:#00ADEE;} .st1{fill:#00ADEE;} .st2{fill:#FC4C02;} .st3{fill:none;stroke:#FC4C02;stroke-width:0.4727;stroke-miterlimit:10;} .st4{fill:none;stroke:#FC4C02;stroke-width:0.4675;stroke-miterlimit:10;} .st5{fill:none;stroke:#FC4C02;stroke-width:0.4473;stroke-miterlimit:10;} .st6{fill:#FFFFFF;}</style><path class="st6" d="M13.3 14c0 .2-.1.3-.3.3h-.1c-.2 0-.3-.1-.3-.3v-3.7c0-.2.1-.3.3-.3h.1c.2 0 .3.1.3.3V14zm-2.4 0c0 .2-.1.3-.3.3h-.1c-.2 0-.3-.1-.3-.3v-3.7c0-.2.1-.3.3-.3h.1c.2 0 .3.1.3.3V14zm-2.4 0c0 .2-.1.3-.3.3h-.1c-.2 0-.3-.1-.3-.3v-3.7c0-.2.1-.3.3-.3h.1c.2 0 .3.1.3.3V14zm-2.4 0c0 .2-.1.3-.3.3h-.2c-.2 0-.3-.1-.3-.3v-3.7c0-.2.1-.3.3-.3h.1c.2 0 .3.1.3.3V14zm10.6-5.8c0-.5-.4-.9-1-.9h-13c-.5 0-1 .4-1 .9 0 .4.3.8.8.9l1.3 6.1c0 .6.5 1 1.1 1h8.9c.6 0 1.1-.5 1.1-1L16.2 9c.3-.1.5-.4.5-.8zM5 5.7c.3-2 2.1-3.6 4.3-3.6s4 1.6 4.3 3.6c0 .7 1 .6 1 0-.4-2.5-2.6-4.5-5.3-4.5-2.7 0-4.9 2-5.2 4.5-.1.7.9.8.9 0z"/></svg>