<svg id="Layer_1" xmlns="http://www.w3.org/2000/svg" viewBox="0 0 18.5 30.4"><style>.st0{fill-rule:evenodd;clip-rule:evenodd;fill:#00ADEE;} .st1{fill:#00ADEE;} .st2{fill:#FC4C02;} .st3{fill:none;stroke:#FC4C02;stroke-width:0.4727;stroke-miterlimit:10;} .st4{fill:none;stroke:#FC4C02;stroke-width:0.4675;stroke-miterlimit:10;} .st5{fill:none;stroke:#FC4C02;stroke-width:0.4473;stroke-miterlimit:10;} .st6{fill:#FFFFFF;}</style><path class="st6" d="M5 16.1c0-.1.1-.2.2-.2h8.4c.1 0 .2.1.2.2s-.1.2-.2.2H5.2c-.1 0-.2-.1-.2-.2zM5 12.1s.1-.1.2-.1h8.4c.1 0 .2.1.2.2s-.1.2-.2.2H5.2c-.1-.1-.2-.2-.2-.3zM5 8.2c0-.1.1-.2.2-.2h8.4c.1 0 .2.1.2.2s-.1.2-.2.2H5.2c-.1 0-.2-.1-.2-.2z"/><path class="st6" d="M16.4 1.1h-14c-.4 0-.7.3-.7.7v8.9c-.2.1-.3.2-.3.4V15c0 .2.1.4.3.4v13.8H4v-1.6h10.8v1.6h2.3v-2.3V1.8c0-.4-.3-.7-.7-.7zm-3 23.6c0 .4-.3.7-.7.7H6.1c-.4 0-.7-.3-.7-.7v-1.4h7.9v1.4zm2.2-3.4H3.2V2.7h12.3v18.6z"/><g><path class="st6" d="M13 24.7c0 .2-.1.3-.3.3H6.1c-.2 0-.3-.1-.3-.3v-1.1H13v1.1z"/><path class="st6" d="M13 23.6v1.1c0 .2-.1.3-.3.3H6.1c-.2 0-.3-.1-.3-.3v-1.1H13z"/></g></svg>